<svg xmlns="http://www.w3.org/2000/svg" viewBox="0 0 64 64" fill="none" stroke="currentColor" stroke-linecap="round" stroke-linejoin="round" stroke-width="1.5">
  <title>Opossum silhouette</title>
  <path d="M49.5 22.5c-1.5-3-6-5-10.5-4.5-2 .25-4 1-5.5 2.25-2 1.5-4 3.75-6.25 4.25-3 .75-6-1-8.25-3.25C17 19.5 13 17 9.5 17 6 17 3 18.75 2 21.25c-1 2.5-.25 6.75 1.5 9.5 2 3 5.25 6.25 9.5 7 2 .4 4 .5 5.5 1.75 1.75 1.5 2.75 4.25 4.5 6 2 2 5.25 3.25 8.25 3.5 3 .25 6.25-.25 9-1.75 3-1.5 5.5-3.75 7.25-6.75 1.5-2.5 2.25-6.5 1.25-9.25-1-2.75-3.75-4.75-6.5-6-2.5-1.1-5.25-1.75-7.75-2.75z"/>
  <circle cx="44" cy="24" r="1.5" fill="currentColor" stroke="none"/>
</svg>
